<svg xmlns="http://www.w3.org/2000/svg" viewBox="0 0 308.74 150.99"><defs><style>.cls-1{fill:#595757;}.cls-2{fill:#e4007f;}</style></defs><title>sponsor02</title><g id="レイヤー_2" data-name="レイヤー 2"><g id="レイヤー_1-2" data-name="レイヤー 1"><path class="cls-1" d="M3.07,142.38a.43.43,0,0,1,.38.21.37.37,0,0,1,.07.24.58.58,0,0,1-.26.46A14.33,14.33,0,0,1,.75,144.8a.54.54,0,0,1-.24.06.48.48,0,0,1-.45-.28.54.54,0,0,1-.06-.24.47.47,0,0,1,.3-.46,14.15,14.15,0,0,0,2.46-1.39A.54.54,0,0,1,3.07,142.38ZM.7,147c-.26,0-.4-.18-.4-.48s.14-.48.4-.48H5.94v-.74c0-.25.23-.41.54-.41s.51.16.51.41V146h5.43c.26,0,.4.18.4.48s-.14.48-.4.48H7.81a11.83,11.83,0,0,0,5,2.61.49.49,0,0,1,.4.48.57.57,0,0,1,0,.21.52.52,0,0,1-.51.38l-.18,0a12,12,0,0,1-5.6-3.48A8.3,8.3,0,0,1,7,148.62v1.95c0,.24-.18.4-.53.4s-.53-.16-.53-.4v-1.87a7.8,7.8,0,0,1,.17-1.53,13,13,0,0,1-5.36,3.48,1,1,0,0,1-.2,0,.54.54,0,0,1-.51-.34.71.71,0,0,1,0-.23.46.46,0,0,1,.35-.47A12.54,12.54,0,0,0,5.09,147Zm2.4-6.54a.68.68,0,0,1,.18.46.49.49,0,0,1-.14.36.56.56,0,0,1-.4.17.48.48,0,0,1-.38-.18,15.35,15.35,0,0,0-1.75-1.69.42.42,0,0,1-.16-.31.55.55,0,0,1,.14-.36.57.57,0,0,1,.41-.2.57.57,0,0,1,.33.11A12.52,12.52,0,0,1,3.1,140.42Zm5-1.32c.82,0,1.17.31,1.17,1.08v3.3c0,.78-.34,1.08-1.17,1.08h-3c-.84,0-1.16-.3-1.16-1.08v-3.3c0-.77.34-1.08,1.16-1.08h.55A7.71,7.71,0,0,0,6,138a.48.48,0,0,1,.5-.31h.14c.27,0,.41.18.41.36a.75.75,0,0,1,0,.16c-.13.33-.26.65-.38.91Zm.17,2.29v-1.08c0-.26-.13-.33-.4-.33H5.27c-.26,0-.38.07-.38.33v1.08Zm-3.35,2c0,.26.13.33.38.33H7.84c.27,0,.4-.07.4-.33v-1.11H4.89Zm7.93.48a.63.63,0,0,1,.3.5.58.58,0,0,1-.07.26.54.54,0,0,1-.81.17,16.12,16.12,0,0,0-2.41-1.51.44.44,0,0,1-.26-.41.7.7,0,0,1,.07-.27.47.47,0,0,1,.44-.27.86.86,0,0,1,.34.09A21.92,21.92,0,0,1,12.81,143.83Zm-.68-5.26a.49.49,0,0,1,.37.16.47.47,0,0,1,.2.38.57.57,0,0,1-.16.37,12.45,12.45,0,0,1-1.87,1.76.82.82,0,0,1-.44.17.49.49,0,0,1-.37-.18.45.45,0,0,1-.13-.33.51.51,0,0,1,.18-.41,10.28,10.28,0,0,0,1.82-1.72A.52.52,0,0,1,12.13,138.57Z"/><path class="cls-1" d="M17.82,139v0c-.07,2.09-.18,4.6-.18,6.88,0,1.33.17,2.07.62,2.51a3,3,0,0,0,2.16.6,4.15,4.15,0,0,0,3-1.22A6.76,6.76,0,0,0,25,145c.1-.33.3-.48.54-.48a.64.64,0,0,1,.23,0,.6.6,0,0,1,.44.58.8.8,0,0,1,0,.24,7.81,7.81,0,0,1-1.89,3.41,5.37,5.37,0,0,1-3.85,1.51,4.17,4.17,0,0,1-3-1c-.65-.64-1-1.56-1-3.37,0-2.2.07-4.83.17-6.92a.57.57,0,0,1,.61-.6h0A.54.54,0,0,1,17.82,139Z"/><path class="cls-1" d="M37.38,138.82a.64.64,0,0,1-.23.48,39.35,39.35,0,0,1-5.47,4.22c-.33.21-.4.35-.4.55s.11.33.5.57a47.52,47.52,0,0,1,5.87,4.53.74.74,0,0,1,.26.55.73.73,0,0,1-.17.47.62.62,0,0,1-.48.24.7.7,0,0,1-.5-.23,47.05,47.05,0,0,0-6-4.79c-.65-.44-.87-.81-.87-1.33a1.62,1.62,0,0,1,.92-1.42,37.46,37.46,0,0,0,5.38-4.25.69.69,0,0,1,.47-.2.8.8,0,0,1,.47.17A.55.55,0,0,1,37.38,138.82Z"/><path class="cls-1" d="M54.36,138.82c.26,0,.37.2.37.47s-.11.48-.37.48h-9c-.48,0-.64.17-.64.58,0,1.45,0,3.58-.14,5a10.6,10.6,0,0,1-1.76,5.11.52.52,0,0,1-.43.27.58.58,0,0,1-.37-.14.52.52,0,0,1-.23-.41.68.68,0,0,1,.14-.38,8.84,8.84,0,0,0,1.63-4.43,10.73,10.73,0,0,1-1.55.9.41.41,0,0,1-.21.06.48.48,0,0,1-.41-.33.63.63,0,0,1,0-.23.48.48,0,0,1,.31-.47,14,14,0,0,0,2-1c.06-1.31.07-2.91.07-4.19a1.2,1.2,0,0,1,1.36-1.32h3.47V138c0-.28.23-.44.55-.44s.55.16.55.44v.77ZM42,140.25a.46.46,0,0,1,.4.23,11.42,11.42,0,0,1,.85,2,1.06,1.06,0,0,1,0,.17c0,.19-.11.3-.34.4a.51.51,0,0,1-.24.06.36.36,0,0,1-.37-.27,16.62,16.62,0,0,0-.82-2,.37.37,0,0,1,0-.17.47.47,0,0,1,.28-.4A.55.55,0,0,1,42,140.25Zm10.8.68c.77,0,1.14.3,1.14,1v2.74c0,.7-.37,1-1.14,1h-2.6v.9H52.7a.73.73,0,0,1,.81.68.88.88,0,0,1-.38.68,11.71,11.71,0,0,1-2.19,1.38,14.21,14.21,0,0,0,3.51.63.43.43,0,0,1,.45.48v0a.5.5,0,0,1-.54.47h0a13.44,13.44,0,0,1-4.52-1.12A19.73,19.73,0,0,1,44.65,151h-.07a.45.45,0,0,1-.48-.45.32.32,0,0,1,0-.11.42.42,0,0,1,.45-.43,19.19,19.19,0,0,0,4.21-.75,9.39,9.39,0,0,1-2.09-1.8H45.41A.38.38,0,0,1,45,147c0-.28.14-.43.38-.43h3.85v-.9H46.84c-.75,0-1.12-.3-1.12-1V142c0-.72.37-1,1.12-1h2.43v-.47c0-.26.17-.4.48-.4s.48.14.48.4v.47Zm-5.78.82c-.24,0-.37.07-.37.31v.82h2.59v-1.14Zm-.37,1.95v.85c0,.24.13.31.37.31h2.22V143.7Zm1.14,3.74a7.64,7.64,0,0,0,2,1.43A11.16,11.16,0,0,0,52,147.69q.13-.08.13-.17s-.07-.09-.18-.09Zm2.41-4.55H53v-.82c0-.24-.13-.31-.37-.31H50.23Zm0,2h2.36c.24,0,.37-.07.37-.31v-.85H50.23Z"/><path class="cls-1" d="M65.28,145.12c-.2,1.07-.72,1.66-1.73,1.66a3.61,3.61,0,0,1-2.2-.81.58.58,0,0,1-.2-.44.61.61,0,0,1,.11-.34.6.6,0,0,1,.45-.23.55.55,0,0,1,.37.14,2.38,2.38,0,0,0,1.35.53c.43,0,.64-.21.75-.79a15.52,15.52,0,0,0,.16-2.27c-.75,0-1.46,0-2.13.08-.91.06-1.82.1-2.74.17v1.56c0,2.56.07,3.15.28,3.51.36.65,1.15.84,3,.84a19.82,19.82,0,0,0,3.74-.34h.2a.51.51,0,0,1,.54.47.38.38,0,0,1,0,.13.58.58,0,0,1-.53.61,22.09,22.09,0,0,1-3.92.33c-2.24,0-3.44-.37-3.95-1.26-.38-.6-.51-1.29-.51-3.74v-.38c0-.53,0-1.07,0-1.63-.72,0-1.49.11-2.24.17H56a.5.5,0,0,1-.5-.51v0A.49.49,0,0,1,56,142l2.34-.19c0-.88,0-1.86,0-2.64a.52.52,0,0,1,.58-.53c.37,0,.6.2.6.53,0,.84,0,1.7,0,2.57.87-.06,1.76-.11,2.68-.16l2.17-.1c0-.3,0-.6,0-.9,0-.58,0-1.15,0-1.69a.51.51,0,0,1,.57-.51.53.53,0,0,1,.6.5v1.25c0,.43,0,.85,0,1.32.77,0,1.62,0,2.42-.06.4,0,.55.2.55.53s-.16.57-.54.57c-.8,0-1.62,0-2.44,0A14.87,14.87,0,0,1,65.28,145.12Z"/><path class="cls-1" d="M74,143.84a7.65,7.65,0,0,1,3.15-.74c2.56,0,4.12,1.35,4.12,3.28,0,2.39-2.17,3.89-5.64,3.89-2.1,0-3.47-.88-3.47-2.2,0-1.11.92-1.92,2.32-1.92a2.94,2.94,0,0,1,3,2.8c1.45-.34,2.53-1.24,2.53-2.56S79,144.07,77,144.07A10.9,10.9,0,0,0,71,146.15a.77.77,0,0,1-.38.1.59.59,0,0,1-.51-.27.51.51,0,0,1-.1-.31.61.61,0,0,1,.33-.54,61.47,61.47,0,0,0,7.29-5.33c-1.55.13-3.72.21-5.54.23a.52.52,0,0,1-.53-.55c0-.33.17-.58.5-.58,1.92,0,4.35-.07,6.24-.2h.13a.76.76,0,0,1,.71.35.78.78,0,0,1-.16,1A30.26,30.26,0,0,1,75.29,143c-.4.27-.88.6-1.28.82Zm.43,3.28c-.74,0-1.17.38-1.17.91s.85,1.19,2.12,1.21c.34,0,.7,0,1,0A2,2,0,0,0,74.47,147.13Z"/><path class="cls-1" d="M90.59,149a1,1,0,0,1-1,1,1,1,0,1,1,0-2A1,1,0,0,1,90.59,149Zm-1.75-9.6c0-.4.31-.65.78-.65s.77.26.75.65l-.2,7.27a.52.52,0,0,1-.57.48c-.3,0-.57-.16-.57-.48Z"/><path class="cls-1" d="M101.52,141a12.09,12.09,0,0,1-3.31,3.48.61.61,0,0,1-.37.13.57.57,0,0,1-.45-.25.58.58,0,0,1-.11-.34.63.63,0,0,1,.27-.53,11.11,11.11,0,0,0,2.23-2.09,10.75,10.75,0,0,0,1.65-2.91.49.49,0,0,1,.5-.37h.23a.49.49,0,0,1,.45.47.4.4,0,0,1,0,.13,6.06,6.06,0,0,1-.47,1.18l4.56-.07a1.27,1.27,0,0,1,1.42,1.38,2.63,2.63,0,0,1-.06.55,11.2,11.2,0,0,1-2.4,5.1,12,12,0,0,1-6.21,3.86l-.27,0a.49.49,0,0,1-.51-.34.8.8,0,0,1,0-.26.57.57,0,0,1,.44-.54,11.85,11.85,0,0,0,5.19-3,21.55,21.55,0,0,0-3.25-2.51.46.46,0,0,1-.23-.41.57.57,0,0,1,.16-.37.55.55,0,0,1,.44-.23.75.75,0,0,1,.37.11,18.85,18.85,0,0,1,3.32,2.51,9.39,9.39,0,0,0,1.76-4.11,1.25,1.25,0,0,0,0-.3c0-.27-.14-.41-.57-.4Zm6.09-3a.48.48,0,0,1,.37.17,12.31,12.31,0,0,1,1.07,1.46.6.6,0,0,1,.08.3.45.45,0,0,1-.21.41.38.38,0,0,1-.24.09.5.5,0,0,1-.43-.26c-.27-.47-.67-1-1-1.43a.49.49,0,0,1-.13-.31.4.4,0,0,1,.17-.33A.51.51,0,0,1,107.62,138.08Zm1.43-.75a.55.55,0,0,1,.41.18,11.37,11.37,0,0,1,1,1.39.53.53,0,0,1,.1.3.51.51,0,0,1-.23.41.43.43,0,0,1-.26.09.47.47,0,0,1-.43-.27,10.81,10.81,0,0,0-.94-1.35.43.43,0,0,1-.13-.3.44.44,0,0,1,.2-.37A.46.46,0,0,1,109.05,137.32Z"/><path class="cls-1" d="M118.61,149.8c0,.36-.27.54-.62.54s-.64-.17-.64-.55v-6.41a25.76,25.76,0,0,1-5.06,2.34.85.85,0,0,1-.31.06.55.55,0,0,1-.53-.4,1.09,1.09,0,0,1,0-.21.61.61,0,0,1,.43-.57,23.6,23.6,0,0,0,5.47-2.64,17.44,17.44,0,0,0,3.86-3.28.68.68,0,0,1,.48-.23.66.66,0,0,1,.41.14.59.59,0,0,1,.26.47.64.64,0,0,1-.16.38,19.91,19.91,0,0,1-3.57,3.11Z"/><path class="cls-1" d="M136.74,148.06c.34,0,.53.23.53.58s-.18.58-.53.58H125.58c-.34,0-.51-.23-.51-.58s.17-.58.51-.58h4.82v-7.23h-3.93c-.36,0-.53-.23-.53-.58s.17-.58.53-.58h9.36a.59.59,0,0,1,0,1.17h-4.16v7.23Z"/><path class="cls-1" d="M141.11,141.84a.51.51,0,0,1,.47.3,18.84,18.84,0,0,1,1.18,2.94,1.22,1.22,0,0,1,0,.21.48.48,0,0,1-.4.47.71.71,0,0,1-.23,0,.49.49,0,0,1-.5-.36,19.06,19.06,0,0,0-1.14-2.88.35.35,0,0,1-.06-.2.51.51,0,0,1,.37-.47A.62.62,0,0,1,141.11,141.84Zm8.37.27v.1a10.47,10.47,0,0,1-1.78,5.1,8.26,8.26,0,0,1-4.77,3h-.16a.51.51,0,0,1-.51-.38,1.13,1.13,0,0,1,0-.21.47.47,0,0,1,.4-.47,7.41,7.41,0,0,0,4.18-2.66,9.89,9.89,0,0,0,1.53-4.6.48.48,0,0,1,.53-.44h.07C149.3,141.63,149.48,141.8,149.48,142.11Zm-5.38-.84a.53.53,0,0,1,.48.31,14.79,14.79,0,0,1,1.11,2.9.47.47,0,0,1,0,.14.5.5,0,0,1-.38.48,1.45,1.45,0,0,1-.24,0,.46.46,0,0,1-.48-.33,16.46,16.46,0,0,0-1.07-2.81.4.4,0,0,1-.06-.21.53.53,0,0,1,.37-.46A.57.57,0,0,1,144.1,141.27Z"/><path class="cls-1" d="M156.81,149.87c0,.38-.27.54-.62.54s-.62-.16-.62-.54v-11c0-.38.24-.54.63-.54s.62.16.62.55v3.65a42.69,42.69,0,0,1,6.93,2.54.62.62,0,0,1,.38.6.87.87,0,0,1-.06.31.61.61,0,0,1-.57.41.76.76,0,0,1-.3-.07,39.17,39.17,0,0,0-6.39-2.53Z"/><path class="cls-1" d="M167.4,141v.07a17.89,17.89,0,0,1-.54,3.31.38.38,0,0,1-.4.27l-.18,0a.4.4,0,0,1-.31-.4,1,1,0,0,1,0-.18,14.91,14.91,0,0,0,.51-3,.37.37,0,0,1,.41-.4H167C167.31,140.63,167.4,140.76,167.4,141Zm1.58,9.57c0,.26-.2.4-.53.4s-.53-.14-.53-.4V138.16c0-.25.23-.4.53-.4s.53.14.53.4Zm.74-10.43a.31.31,0,0,1,.3.2,10.36,10.36,0,0,1,.53,1.42.78.78,0,0,1,0,.16c0,.16-.1.26-.27.33a.53.53,0,0,1-.24.06.31.31,0,0,1-.31-.27,9.55,9.55,0,0,0-.44-1.32.48.48,0,0,1-.06-.21c0-.14.09-.24.26-.31A.71.71,0,0,1,169.71,140.15Zm9.25,2.19c.23,0,.36.14.36.4s-.13.43-.36.43h-8.35c-.24,0-.37-.16-.37-.41s.13-.41.37-.41H174v-1h-2.77c-.23,0-.34-.17-.34-.41s.11-.41.34-.41H174v-.88h-3.18c-.23,0-.35-.16-.35-.41s.13-.43.35-.43H174v-.68c0-.26.18-.37.5-.37s.47.11.47.37v.68h3.71c.23,0,.35.17.35.43s-.13.41-.35.41H175v.88h3.18c.2,0,.33.17.33.41s-.13.41-.33.41H175v1Zm-7,6.17v2.07c0,.26-.21.38-.53.38s-.51-.13-.51-.38v-5.5c0-.77.37-1.07,1.19-1.07H177c.84,0,1.22.3,1.22,1.07v4.62c0,.89-.57,1.19-1.68,1.19a6,6,0,0,1-1.39-.16.41.41,0,0,1-.34-.43.66.66,0,0,1,0-.16.38.38,0,0,1,.4-.36.46.46,0,0,1,.14,0,3.71,3.71,0,0,0,1.07.16c.64,0,.78-.06.78-.44v-1Zm5.3-3.31c0-.28-.14-.35-.43-.35h-4.46c-.28,0-.41.07-.41.35v.64h5.3Zm0,1.46h-5.3v1h5.3Z"/><path class="cls-1" d="M180.73,140.28c-.24,0-.37-.2-.37-.47s.13-.48.37-.48h2v-1.24c0-.24.19-.37.51-.37s.51.13.51.37v1.24h1.8c.26,0,.38.18.38.48s-.13.47-.38.47h-1.8v1.36H186c.25,0,.38.17.38.47s-.13.48-.38.48h-5.65c-.26,0-.38-.2-.38-.48s.13-.47.38-.47h2.43v-1.36Zm-.4,5.61c-.26,0-.38-.18-.38-.47s.13-.48.38-.48h3.42a10.5,10.5,0,0,0,.71-1.85.43.43,0,0,1,.43-.34l.16,0a.4.4,0,0,1,.36.4.69.69,0,0,1,0,.17,9.29,9.29,0,0,1-.7,1.59H186c.26,0,.38.18.38.48s-.13.47-.38.47h-2.19v1.36h1.95c.27,0,.4.19.4.48s-.13.48-.4.48h-1.95v2.4c0,.24-.21.37-.51.37s-.51-.13-.51-.37v-2.4h-2.13c-.25,0-.38-.2-.38-.48s.13-.48.38-.48h2.13v-1.36Zm1.28-3.15a.43.43,0,0,1,.4.28,5.1,5.1,0,0,1,.41,1.19.52.52,0,0,1,0,.14.38.38,0,0,1-.34.4l-.17,0a.37.37,0,0,1-.4-.33,7.37,7.37,0,0,0-.38-1.16.76.76,0,0,1,0-.16.38.38,0,0,1,.33-.37Zm6.17,1v6.76c0,.26-.2.43-.53.43s-.51-.17-.51-.43V139.38c0-.81.41-1.17,1.25-1.17h3.52c.8,0,1.18.3,1.18,1a1.18,1.18,0,0,1,0,.23,6.36,6.36,0,0,1-.34,1.75c-.23.57-.75.72-1.46.72a7.21,7.21,0,0,1-1.31-.11.47.47,0,0,1-.37-.5v-.1a.41.41,0,0,1,.43-.38h.08a5,5,0,0,0,1,.11c.4,0,.61-.09.71-.33a3.87,3.87,0,0,0,.2-1.09v0c0-.21-.16-.3-.41-.3h-3c-.27,0-.43.09-.43.36v3.28h3.74c.74,0,1.07.31,1.07.88a1.9,1.9,0,0,1-.06.47,13.64,13.64,0,0,1-1.49,3.74,12,12,0,0,0,2,1.79.59.59,0,0,1,.24.47.58.58,0,0,1-.11.34.57.57,0,0,1-.46.24.58.58,0,0,1-.36-.13,12.67,12.67,0,0,1-1.86-1.83,10.75,10.75,0,0,1-1.58,1.79.6.6,0,0,1-.41.19.48.48,0,0,1-.34-.16.6.6,0,0,1-.16-.38.49.49,0,0,1,.17-.38,9.7,9.7,0,0,0,1.69-1.87,11.16,11.16,0,0,1-1.65-4.19Zm1.29,0a9.65,9.65,0,0,0,1.34,3.29,10.62,10.62,0,0,0,1.11-2.93,1,1,0,0,0,0-.17c0-.16-.07-.2-.28-.2Z"/><path class="cls-1" d="M195.86,149.94a1,1,0,0,1-.33.07.5.5,0,0,1-.48-.3.86.86,0,0,1-.08-.34.58.58,0,0,1,.4-.54,14.09,14.09,0,0,0,5.38-4.21,39.23,39.23,0,0,0-4-3,.49.49,0,0,1-.23-.43.67.67,0,0,1,.14-.4.58.58,0,0,1,.45-.21.78.78,0,0,1,.44.14,36.37,36.37,0,0,1,3.92,2.91,14.73,14.73,0,0,0,2-4.66c.07-.34.21-.54.5-.54a1,1,0,0,1,.27,0,.6.6,0,0,1,.48.6,1.45,1.45,0,0,1,0,.24,17.77,17.77,0,0,1-2.26,5.16,22.76,22.76,0,0,1,2.87,3.1.76.76,0,0,1,.16.45.57.57,0,0,1-.24.47.59.59,0,0,1-.4.16.66.66,0,0,1-.53-.28,29.72,29.72,0,0,0-2.6-2.87A15.06,15.06,0,0,1,195.86,149.94Z"/><path class="cls-1" d="M208.4,143.8c-.33,0-.5-.26-.5-.58a.5.5,0,0,1,.51-.55h11.08c.36,0,.51.24.51.58a.49.49,0,0,1-.5.55H215A7.58,7.58,0,0,1,213.9,148a5.72,5.72,0,0,1-3.42,2.4,1.27,1.27,0,0,1-.31,0,.53.53,0,0,1-.53-.34.81.81,0,0,1,0-.26.56.56,0,0,1,.41-.57,4.61,4.61,0,0,0,2.88-2,6.43,6.43,0,0,0,.85-3.45Zm9.06-4.72c.36,0,.51.26.51.61a.5.5,0,0,1-.51.57h-7.84a.54.54,0,0,1-.51-.6.51.51,0,0,1,.51-.58Zm1-1.12a.49.49,0,0,1,.4.18,12.12,12.12,0,0,1,1,1.53.43.43,0,0,1,.07.26.49.49,0,0,1-.24.44.33.33,0,0,1-.2.06.54.54,0,0,1-.44-.28,14.51,14.51,0,0,0-.92-1.49.52.52,0,0,1-.11-.3.39.39,0,0,1,.2-.33A.63.63,0,0,1,218.45,138Zm1.42-.64a.6.6,0,0,1,.44.21,11.46,11.46,0,0,1,.91,1.44.75.75,0,0,1,.07.28.55.55,0,0,1-.24.43.47.47,0,0,1-.23.07.51.51,0,0,1-.44-.33,9.66,9.66,0,0,0-.87-1.39.5.5,0,0,1-.1-.28.43.43,0,0,1,.23-.37A.42.42,0,0,1,219.88,137.32Z"/><path class="cls-1" d="M229.13,149.94a.57.57,0,0,1-.6.5.53.53,0,0,1-.57-.51v-5a20.46,20.46,0,0,1-3.89,1.86,1,1,0,0,1-.27,0,.48.48,0,0,1-.48-.34.81.81,0,0,1,0-.26.53.53,0,0,1,.38-.53,19.9,19.9,0,0,0,4.32-2.1,13.78,13.78,0,0,0,3.07-2.61.45.45,0,0,1,.37-.18.71.71,0,0,1,.43.18.6.6,0,0,1,.2.43.67.67,0,0,1-.16.4,19.15,19.15,0,0,1-2.76,2.46Z"/><path class="cls-1" d="M246.26,139.07a1.46,1.46,0,0,1,1.26.54,1.32,1.32,0,0,1,.24.8,2.21,2.21,0,0,1-.21.89,7.37,7.37,0,0,1-3.72,3.45.89.89,0,0,1-.31.07.52.52,0,0,1-.48-.27.64.64,0,0,1-.09-.31.59.59,0,0,1,.36-.54,6.57,6.57,0,0,0,3.1-2.76,1,1,0,0,0,.1-.36c0-.2-.14-.34-.47-.34h-9.35c-.34,0-.51-.21-.51-.58s.19-.6.51-.6Zm-4.08,3a10.92,10.92,0,0,1-.9,5,6.2,6.2,0,0,1-3.69,3.13.74.74,0,0,1-.3.06.53.53,0,0,1-.51-.37.71.71,0,0,1-.06-.28.53.53,0,0,1,.41-.51,5.07,5.07,0,0,0,3-2.59,9.93,9.93,0,0,0,.72-4.43.58.58,0,0,1,.65-.61A.55.55,0,0,1,242.18,142.11Z"/><path class="cls-1" d="M258.1,139.82v0a24.54,24.54,0,0,1-.64,4.35,12.81,12.81,0,0,1-2.47,5.23.69.69,0,0,1-.54.28.66.66,0,0,1-.43-.17.61.61,0,0,1-.2-.45.86.86,0,0,1,.18-.51,11.68,11.68,0,0,0,2.26-4.73,20.48,20.48,0,0,0,.57-4.06.56.56,0,0,1,.61-.6h0A.59.59,0,0,1,258.1,139.82Zm4.23-.62c.43,0,.63.21.63.6a19.67,19.67,0,0,0,.71,4.06,12,12,0,0,0,2.33,4.69.7.7,0,0,1,.17.47.73.73,0,0,1-.24.54.76.76,0,0,1-.41.14.66.66,0,0,1-.5-.26,13.51,13.51,0,0,1-2.56-5.19,23.38,23.38,0,0,1-.74-4.39v-.07a.56.56,0,0,1,.57-.6Zm4.29.27a1.56,1.56,0,1,1-1.56-1.56A1.56,1.56,0,0,1,266.63,139.47Zm-2.44,0a.88.88,0,1,0,.88-.88A.89.89,0,0,0,264.18,139.47Z"/><path class="cls-1" d="M270.57,139.23a.56.56,0,0,1,.61-.58.57.57,0,0,1,.63.6v3.07a13.33,13.33,0,0,1-.78,5.11,6.6,6.6,0,0,1-2,2.63.81.81,0,0,1-.53.2A.62.62,0,0,1,268,150a.61.61,0,0,1-.16-.43.57.57,0,0,1,.28-.5,5.12,5.12,0,0,0,1.76-2.23,12.51,12.51,0,0,0,.67-4.66Zm3.72-.1a.54.54,0,0,1,.61-.57.57.57,0,0,1,.63.57l-.06,9.09c0,.26.11.4.35.4a1.12,1.12,0,0,0,.41-.1,6.29,6.29,0,0,0,3.13-3.51.5.5,0,0,1,.47-.33.65.65,0,0,1,.31.08.55.55,0,0,1,.33.51.64.64,0,0,1-.06.26,7.13,7.13,0,0,1-4.28,4.3,3.18,3.18,0,0,1-.68.09c-.79,0-1.22-.45-1.22-1.36Z"/><path class="cls-1" d="M282.44,145.08c-.36,0-.55-.23-.55-.61a.56.56,0,0,1,.57-.64h10.78a.57.57,0,0,1,.57.64c0,.38-.2.61-.55.61Z"/><path class="cls-1" d="M298.26,139.23a.56.56,0,0,1,.61-.58.57.57,0,0,1,.63.6v3.07a13.33,13.33,0,0,1-.78,5.11,6.6,6.6,0,0,1-2,2.63.81.81,0,0,1-.53.2.62.62,0,0,1-.48-.23.61.61,0,0,1-.16-.43.57.57,0,0,1,.28-.5,5.12,5.12,0,0,0,1.76-2.23,12.51,12.51,0,0,0,.67-4.66Zm3.72-.1a.54.54,0,0,1,.61-.57.57.57,0,0,1,.62.57l-.06,9.09c0,.26.11.4.35.4a1.12,1.12,0,0,0,.41-.1,6.29,6.29,0,0,0,3.13-3.51.5.5,0,0,1,.47-.33.65.65,0,0,1,.31.08.55.55,0,0,1,.33.51.64.64,0,0,1-.06.26,7.13,7.13,0,0,1-4.28,4.3,3.18,3.18,0,0,1-.68.09c-.79,0-1.22-.45-1.22-1.36Z"/><path class="cls-2" d="M43.48,40.82c-5-4.75-11.77-7.15-20-7.15H.92v96.78H13.75V97.34H23.86c8,0,14.67-2.54,19.68-7.55s7.64-16.65,7.64-25.08S48.59,45.65,43.48,40.82Zm-29.73,6H23a14.47,14.47,0,0,1,10.75,4.09c2.71,2.69,4,10.09,4,14.51,0,9.64-4.85,18.47-15.25,18.47H13.75Z"/><path class="cls-2" d="M182.62,84.85c3.55-4.74,5.35-15,5.35-21.06,0-8.19-2.48-18.63-7.39-23.27S169.17,33.66,161,33.66H136.07v96.78h12.83V96.81H157l24.18,33.63h15.9L170.31,93.76A25.75,25.75,0,0,0,182.62,84.85ZM148.89,46.77h10.7c10.37,0,15.2,8.3,15.2,17.68,0,4.19-1.36,11.91-4.17,14.67s-6.62,4.2-11.26,4.2H148.89Z"/><polygon class="cls-2" points="216.72 96.47 248.56 96.47 248.56 83.36 216.72 83.36 216.72 46.77 249.84 46.77 249.84 33.66 203.9 33.66 203.9 130.44 250.19 130.44 250.19 117.33 216.72 117.33 216.72 96.47"/><polygon class="cls-2" points="273.46 117.33 273.46 33.66 260.63 33.66 260.63 130.44 308.74 130.44 308.74 117.33 273.46 117.33"/><path class="cls-2" d="M131.91,129.7c-5.94-9-11.1-20.66-15.35-33h10V83.23H112.23a258.88,258.88,0,0,1-8.09-50.76l-.08-1.1L103,32s-8.34,3.13-14.13,3.24c-5,.1-8.74-1.22-14.73-3.36l-.85-.27-.07.91a417.35,417.35,0,0,1-7.59,51H51.85V96.93H62c-4.72,16.3-10.24,27.79-16.43,32.6l-.39.31.16.48c.16.49,14.42.35,14.42.35h-.08c6.43-4.25,12.34-29.45,13.3-33.54h31.33c1.11,5.05,7.11,31.79,13.37,33.63,0,0,13.93.09,14.18-.26l.29-.4ZM100.28,83.3H77.07l6.58-33.51a12.1,12.1,0,0,0,4.59.93,10.55,10.55,0,0,0,4.45-1C93.72,53.36,97.61,70.95,100.28,83.3Z"/><path class="cls-2" d="M77.69,19.7c-4-4.34-6-8.18-6-11.45a8.61,8.61,0,0,1,2.2-5.68C75.5.83,77.69,0,80.66,0a8.19,8.19,0,0,1,4.11.9,6.16,6.16,0,0,1,2.77,3.71c.28,1.2.28,1.2.57,1.2s.33-.17.57-1.2a5.72,5.72,0,0,1,3-3.84A10.88,10.88,0,0,1,95.87,0a9.84,9.84,0,0,1,5,1.4,7.63,7.63,0,0,1,3.58,6.91A11.89,11.89,0,0,1,102,15.46a47.67,47.67,0,0,1-8.62,9.18c-2.89,2.5-4.64,4-5.29,4.57C81.15,23.34,80.38,22.64,77.69,19.7Z"/></g></g></svg>